<svg width="138" height="24" viewBox="0 0 138 24" fill="none" xmlns="http://www.w3.org/2000/svg">
<path d="M5.78125 20.7305C5.34375 20.7305 4.95703 20.7109 4.62109 20.6719C4.29297 20.6328 3.98438 20.5391 3.69531 20.3906C2.9375 20.0234 2.55859 19.2891 2.55859 18.1875C2.55859 17.6562 2.64062 17.0195 2.80469 16.2773C2.97656 15.5352 3.21875 14.7344 3.53125 13.875C4.21875 11.9844 5.07031 10.168 6.08594 8.42578C5.28125 8.47266 4.64844 8.58984 4.1875 8.77734C3.73438 8.96484 3.43359 9.26172 3.28516 9.66797C3.31641 9.66797 3.34766 9.69141 3.37891 9.73828C3.41797 9.77734 3.45312 9.83203 3.48438 9.90234C3.55469 10.0742 3.58984 10.2461 3.58984 10.418C3.58984 10.6992 3.46094 10.9258 3.20312 11.0977C2.94531 11.2695 2.625 11.3555 2.24219 11.3555C1.80469 11.3555 1.44922 11.2383 1.17578 11.0039C0.902344 10.7617 0.765625 10.4141 0.765625 9.96094C0.765625 9.5625 0.886719 9.18359 1.12891 8.82422C1.37109 8.45703 1.71484 8.14062 2.16016 7.875C2.61328 7.60156 3.13672 7.39062 3.73047 7.24219C4.32422 7.08594 4.96484 7.00781 5.65234 7.00781C5.98828 7.00781 6.40625 7.03125 6.90625 7.07812C8.25 4.96094 9.59375 3.30078 10.9375 2.09766C12.5 0.699219 13.9414 0 15.2617 0C16.0352 0 16.6641 0.113281 17.1484 0.339844L13.3867 18H9.92969L11.7812 9.29297C11.2422 9.04297 10.6836 8.83984 10.1055 8.68359C9.66797 8.56641 9.15234 8.48047 8.55859 8.42578C7.63672 10.457 6.89453 12.4609 6.33203 14.4375C5.73828 16.4922 5.44141 18.1445 5.44141 19.3945C5.44141 19.9961 5.55469 20.4414 5.78125 20.7305ZM13.3867 1.69922C12.6914 2.07422 11.9609 2.78125 11.1953 3.82031C10.4453 4.85156 9.73438 6.04297 9.0625 7.39453C10.1562 7.60547 11.1328 7.88281 11.9922 8.22656L13.3867 1.69922ZM25.1758 18.1406C24.2539 18.1406 23.543 17.8828 23.043 17.3672C22.8164 17.1406 22.6445 16.875 22.5273 16.5703C22.4102 16.2578 22.3516 15.9336 22.3516 15.5977C22.3516 15.3008 22.3945 14.8984 22.4805 14.3906C22.5742 13.8828 22.7148 13.1641 22.9023 12.2344H20.2422L19.0117 18H15.5547L18.0977 6H21.5547L20.5234 10.8047H23.207L24.2969 6H27.5078L26.2422 11.9531L25.8203 13.8047C25.7109 14.2891 25.6562 14.625 25.6562 14.8125C25.6562 15.4844 25.9766 15.8203 26.6172 15.8203C26.8594 15.8203 27.0703 15.7812 27.25 15.7031C27.4297 15.6172 27.5977 15.4844 27.7539 15.3047C27.8945 15.1406 28.0273 14.9375 28.1523 14.6953C28.2852 14.4531 28.4453 14.1211 28.6328 13.6992H29.6406C28.6328 16.6602 27.1445 18.1406 25.1758 18.1406ZM43.2227 18.1406C42.2305 18.1406 41.4961 17.8594 41.0195 17.2969C40.6055 16.8125 40.3984 16.1914 40.3984 15.4336C40.3984 15.0742 40.4414 14.6562 40.5273 14.1797C40.6211 13.7031 40.7578 13.0898 40.9375 12.3398C41.1172 11.5742 41.25 10.9648 41.3359 10.5117C41.4297 10.0508 41.4766 9.65234 41.4766 9.31641C41.4766 8.49609 41.1875 8.08594 40.6094 8.08594C40.2031 8.08594 39.8281 8.30078 39.4844 8.73047C39.1953 9.09766 38.9453 9.62109 38.7344 10.3008L37.1055 18H33.6484L35.4062 9.71484C35.4531 9.52734 35.4766 9.32812 35.4766 9.11719C35.4766 8.79688 35.4258 8.55078 35.3242 8.37891C35.1914 8.16797 35 8.0625 34.75 8.0625C34.2969 8.0625 33.9023 8.28125 33.5664 8.71875C33.2695 9.09375 33.0156 9.62109 32.8047 10.3008L31.1758 18H27.7188L30.2617 6H33.7188L33.4609 7.24219C33.9297 6.71875 34.4414 6.34766 34.9961 6.12891C35.4336 5.96484 35.8984 5.88281 36.3906 5.88281C37.0625 5.88281 37.5977 6.03906 37.9961 6.35156C38.4414 6.70312 38.7266 7.23438 38.8516 7.94531C39.3672 7.14844 39.9609 6.58594 40.6328 6.25781C41.1094 6.02344 41.6289 5.90625 42.1914 5.90625C42.9961 5.90625 43.6328 6.11719 44.1016 6.53906C44.6016 7 44.8516 7.69141 44.8516 8.61328C44.8516 9.13672 44.7539 9.85938 44.5586 10.7812C44.4805 11.1641 44.3867 11.5508 44.2773 11.9414C44.082 12.6914 43.9219 13.3828 43.7969 14.0156C43.7344 14.3438 43.7031 14.6094 43.7031 14.8125C43.7031 15.1328 43.7734 15.3828 43.9141 15.5625C44.0625 15.7344 44.3125 15.8203 44.6641 15.8203C45.1406 15.8203 45.543 15.625 45.8711 15.2344C46.1211 14.9375 46.3906 14.4258 46.6797 13.6992H47.6875C47.0938 15.457 46.3438 16.6875 45.4375 17.3906C44.7969 17.8906 44.0586 18.1406 43.2227 18.1406ZM49.0586 18.1406C48.293 18.1406 47.6875 17.9141 47.2422 17.4609C46.7422 16.9609 46.4922 16.2305 46.4922 15.2695C46.4922 14.8164 46.5547 14.293 46.6797 13.6992L48.3086 6H51.7656L50.043 14.1562C49.9961 14.3984 49.9727 14.625 49.9727 14.8359C49.9727 15.4922 50.2109 15.8203 50.6875 15.8203C51.125 15.8203 51.5195 15.6211 51.8711 15.2227C52.1523 14.8867 52.3984 14.3789 52.6094 13.6992L54.2383 6H57.6953L55.9727 14.1562C55.9023 14.3906 55.8672 14.6484 55.8672 14.9297C55.8672 15.2578 55.9453 15.4883 56.1016 15.6211C56.2578 15.7539 56.5078 15.8203 56.8516 15.8203C57.2969 15.8203 57.6953 15.6211 58.0469 15.2227C58.3594 14.8711 58.6094 14.3633 58.7969 13.6992H59.8047C59.375 14.918 58.8555 15.8828 58.2461 16.5938C57.7305 17.1797 57.1484 17.6016 56.5 17.8594C56.0234 18.0469 55.5195 18.1406 54.9883 18.1406C54.3008 18.1406 53.7539 17.9492 53.3477 17.5664C52.9414 17.1836 52.6953 16.6172 52.6094 15.8672C52.0625 16.7422 51.4453 17.3672 50.7578 17.7422C50.2656 18.0078 49.6992 18.1406 49.0586 18.1406ZM67.457 18.1406C66.4648 18.1406 65.7305 17.8594 65.2539 17.2969C64.8398 16.8125 64.6328 16.1914 64.6328 15.4336C64.6328 15.0742 64.6758 14.6562 64.7617 14.1797C64.8555 13.7031 64.9922 13.0898 65.1719 12.3398C65.3516 11.5742 65.4844 10.9648 65.5703 10.5117C65.6641 10.0508 65.7109 9.65234 65.7109 9.31641C65.7109 8.49609 65.4219 8.08594 64.8438 8.08594C64.4375 8.08594 64.0625 8.30078 63.7188 8.73047C63.4297 9.09766 63.1797 9.62109 62.9688 10.3008L61.3398 18H57.8828L60.4258 6H63.8828L63.625 7.24219C64.0938 6.71875 64.5977 6.35156 65.1367 6.14062C65.5352 5.98438 65.9648 5.90625 66.4258 5.90625C67.2383 5.90625 67.8789 6.11719 68.3477 6.53906C68.8477 7 69.0977 7.69141 69.0977 8.61328C69.0977 9.16797 68.9961 9.89062 68.793 10.7812C68.7383 11.0391 68.6484 11.4258 68.5234 11.9414C68.2969 12.8086 68.1328 13.5 68.0312 14.0156C67.9688 14.3438 67.9375 14.6094 67.9375 14.8125C67.9375 15.1328 68.0078 15.3828 68.1484 15.5625C68.2969 15.7344 68.5469 15.8203 68.8984 15.8203C69.375 15.8203 69.7773 15.625 70.1055 15.2344C70.3555 14.9375 70.625 14.4258 70.9141 13.6992H71.9219C71.3281 15.457 70.5781 16.6875 69.6719 17.3906C69.0312 17.8906 68.293 18.1406 67.457 18.1406ZM74.3477 18.1406C73.168 18.1406 72.2578 17.8438 71.6172 17.25C70.9375 16.6172 70.5977 15.6445 70.5977 14.332C70.5977 13.8398 70.6484 13.293 70.75 12.6914C70.8438 12.0898 70.9883 11.4883 71.1836 10.8867C71.4023 10.2148 71.6797 9.57812 72.0156 8.97656C72.3594 8.375 72.7578 7.84375 73.2109 7.38281C74.2578 6.32031 75.5469 5.78906 77.0781 5.78906C78.0547 5.78906 78.7656 6.02344 79.2109 6.49219C79.5547 6.85938 79.7266 7.39062 79.7266 8.08594C79.7266 8.76562 79.5781 9.40625 79.2812 10.0078C78.9844 10.6016 78.5742 11.1289 78.0508 11.5898C77.5273 12.043 76.9336 12.4062 76.2695 12.6797C75.6055 12.9453 74.918 13.1016 74.207 13.1484C74.168 13.5547 74.1484 13.875 74.1484 14.1094C74.1484 14.8906 74.2969 15.4297 74.5938 15.7266C74.8516 15.9922 75.2812 16.125 75.8828 16.125C76.75 16.125 77.543 15.8906 78.2617 15.4219C78.5664 15.2266 78.8594 14.9961 79.1406 14.7305C79.4219 14.457 79.75 14.1133 80.125 13.6992H80.9453C80.1875 14.9805 79.3164 16 78.332 16.7578C77.1211 17.6797 75.793 18.1406 74.3477 18.1406ZM74.3945 12C74.8398 11.9688 75.2734 11.8398 75.6953 11.6133C76.1172 11.3867 76.4922 11.0898 76.8203 10.7227C77.1484 10.3477 77.4062 9.92969 77.5938 9.46875C77.7812 9 77.875 8.52344 77.875 8.03906C77.875 7.71875 77.8281 7.47656 77.7344 7.3125C77.6484 7.14062 77.4961 7.05469 77.2773 7.05469C76.9883 7.05469 76.6953 7.19531 76.3984 7.47656C76.1094 7.75781 75.8281 8.14453 75.5547 8.63672C75.3047 9.09766 75.0781 9.62109 74.875 10.207C74.6719 10.793 74.5117 11.3906 74.3945 12ZM81.9531 5.10938H85.4102L85.0234 6.91406C85.8359 6.22656 86.7695 5.88281 87.8242 5.88281C88.7227 5.88281 89.418 6.15625 89.9102 6.70312C90.4727 7.34375 90.7539 8.33203 90.7539 9.66797C90.7539 10.957 90.5898 12.168 90.2617 13.3008C89.8477 14.7461 89.2461 15.8672 88.457 16.6641C87.4883 17.6484 86.2852 18.1406 84.8477 18.1406C84.293 18.1406 83.8359 18.0547 83.4766 17.8828C83.2031 17.7578 82.9805 17.5586 82.8086 17.2852L81.5664 23.1328L77.9453 24L81.9531 5.10938ZM84.1094 16.0547C84.8828 16.0547 85.5469 15.6602 86.1016 14.8711C86.5391 14.2539 86.8906 13.3867 87.1562 12.2695C87.3672 11.3711 87.4727 10.4805 87.4727 9.59766C87.4727 8.80859 87.3281 8.24609 87.0391 7.91016C86.8516 7.70703 86.5938 7.60547 86.2656 7.60547C85.9766 7.60547 85.6836 7.70703 85.3867 7.91016C85.0898 8.11328 84.832 8.40625 84.6133 8.78906L83.1953 15.5039C83.25 15.6602 83.3516 15.793 83.5 15.9023C83.6562 16.0039 83.8594 16.0547 84.1094 16.0547ZM95.1602 18.1406C93.9805 18.1406 93.0703 17.8438 92.4297 17.25C91.75 16.6172 91.4102 15.6445 91.4102 14.332C91.4102 13.8398 91.4609 13.293 91.5625 12.6914C91.6562 12.0898 91.8008 11.4883 91.9961 10.8867C92.2148 10.2148 92.4922 9.57812 92.8281 8.97656C93.1719 8.375 93.5703 7.84375 94.0234 7.38281C95.0703 6.32031 96.3594 5.78906 97.8906 5.78906C98.8672 5.78906 99.5781 6.02344 100.023 6.49219C100.367 6.85938 100.539 7.39062 100.539 8.08594C100.539 8.76562 100.391 9.40625 100.094 10.0078C99.7969 10.6016 99.3867 11.1289 98.8633 11.5898C98.3398 12.043 97.7461 12.4062 97.082 12.6797C96.418 12.9453 95.7305 13.1016 95.0195 13.1484C94.9805 13.5547 94.9609 13.875 94.9609 14.1094C94.9609 14.8906 95.1094 15.4297 95.4062 15.7266C95.6641 15.9922 96.0938 16.125 96.6953 16.125C97.5625 16.125 98.3555 15.8906 99.0742 15.4219C99.3789 15.2266 99.6719 14.9961 99.9531 14.7305C100.234 14.457 100.562 14.1133 100.938 13.6992H101.758C101 14.9805 100.129 16 99.1445 16.7578C97.9336 17.6797 96.6055 18.1406 95.1602 18.1406ZM95.207 12C95.6523 11.9688 96.0859 11.8398 96.5078 11.6133C96.9297 11.3867 97.3047 11.0898 97.6328 10.7227C97.9609 10.3477 98.2188 9.92969 98.4062 9.46875C98.5938 9 98.6875 8.52344 98.6875 8.03906C98.6875 7.71875 98.6406 7.47656 98.5469 7.3125C98.4609 7.14062 98.3086 7.05469 98.0898 7.05469C97.8008 7.05469 97.5078 7.19531 97.2109 7.47656C96.9219 7.75781 96.6406 8.14453 96.3672 8.63672C96.1172 9.09766 95.8906 9.62109 95.6875 10.207C95.4844 10.793 95.3242 11.3906 95.207 12ZM109.598 18.1406C108.645 18.1406 107.922 17.9062 107.43 17.4375C106.945 16.9688 106.703 16.3164 106.703 15.4805C106.703 15.207 106.75 14.7969 106.844 14.25C106.859 14.125 106.875 14.0391 106.891 13.9922C106.906 13.8359 106.922 13.7305 106.938 13.6758C106.969 13.5195 106.984 13.3594 106.984 13.1953C106.984 12.4297 106.68 12.0469 106.07 12.0469C105.867 12.0469 105.648 12.1172 105.414 12.2578L105.027 12.5391L104.535 12.9375L103.48 18H100.023L102.59 6H106.047L105.016 10.7578C105.531 10.2422 106.031 9.72266 106.516 9.19922L106.691 9C107.621 8 108.254 7.33203 108.59 6.99609C109.145 6.44141 109.668 6.08203 110.16 5.91797C110.434 5.83203 110.719 5.78906 111.016 5.78906C111.555 5.78906 111.965 5.9375 112.246 6.23438C112.527 6.52344 112.668 6.90234 112.668 7.37109C112.668 7.86328 112.535 8.24609 112.27 8.51953C112.012 8.79297 111.641 8.92969 111.156 8.92969C110.711 8.92969 110.371 8.79297 110.137 8.51953C109.926 8.28516 109.828 8.01172 109.844 7.69922C109.594 7.84766 109.355 8.02344 109.129 8.22656C108.91 8.42188 108.668 8.65625 108.402 8.92969L108.168 9.1875C108.059 9.29688 107.91 9.46094 107.723 9.67969C107.527 9.90625 107.289 10.1602 107.008 10.4414C107.281 10.3789 107.617 10.3477 108.016 10.3477C108.844 10.3477 109.441 10.5391 109.809 10.9219C110.137 11.2578 110.301 11.8086 110.301 12.5742C110.301 12.832 110.254 13.2109 110.16 13.7109C110.121 13.9062 110.086 14.1133 110.055 14.332C110.023 14.543 110.008 14.7422 110.008 14.9297C110.008 15.5234 110.328 15.8203 110.969 15.8203C111.211 15.8203 111.418 15.7812 111.59 15.7031C111.77 15.6172 111.934 15.4844 112.082 15.3047C112.223 15.1406 112.359 14.9336 112.492 14.6836C112.625 14.4336 112.781 14.1055 112.961 13.6992H113.969C112.961 16.6602 111.504 18.1406 109.598 18.1406ZM116.699 24C116.324 24 115.973 23.9492 115.645 23.8477C115.324 23.7539 115.047 23.6094 114.812 23.4141C114.562 23.2188 114.367 22.9727 114.227 22.6758C114.086 22.3867 114.016 22.0508 114.016 21.668C114.016 20.7617 114.441 19.9844 115.293 19.3359C115.934 18.8594 116.812 18.4453 117.93 18.0938L118.223 16.8047C117.754 17.3203 117.246 17.6836 116.699 17.8945C116.277 18.0586 115.824 18.1406 115.34 18.1406C114.574 18.1406 113.969 17.9141 113.523 17.4609C113.023 16.9609 112.773 16.2305 112.773 15.2695C112.773 14.8164 112.836 14.293 112.961 13.6992L114.59 6H118.047L116.324 14.1562C116.277 14.3516 116.254 14.5547 116.254 14.7656C116.254 15.0703 116.305 15.3125 116.406 15.4922C116.523 15.7109 116.711 15.8203 116.969 15.8203C117.391 15.8203 117.77 15.6328 118.105 15.2578C118.395 14.9375 118.641 14.4688 118.844 13.8516L120.52 6H123.977L121.598 17.1328C122.355 16.8828 122.961 16.5078 123.414 16.0078C123.906 15.4688 124.309 14.6992 124.621 13.6992H125.629C125.199 15.1211 124.559 16.2188 123.707 16.9922C123.082 17.5547 122.309 17.9531 121.387 18.1875L121.023 19.9219C120.719 21.4531 120.109 22.5625 119.195 23.25C118.531 23.75 117.699 24 116.699 24ZM116.148 22.125C116.391 22.125 116.648 21.9492 116.922 21.5977C117.188 21.2539 117.395 20.7188 117.543 19.9922L117.684 19.3008C116.957 19.5742 116.414 19.8516 116.055 20.1328C115.578 20.4922 115.34 20.8945 115.34 21.3398C115.34 21.5508 115.406 21.7266 115.539 21.8672C115.688 22.0391 115.891 22.125 116.148 22.125ZM133.293 18.1406C132.301 18.1406 131.566 17.8594 131.09 17.2969C130.676 16.8125 130.469 16.1914 130.469 15.4336C130.469 15.0742 130.512 14.6562 130.598 14.1797C130.691 13.7031 130.828 13.0898 131.008 12.3398C131.188 11.5742 131.32 10.9648 131.406 10.5117C131.5 10.0508 131.547 9.65234 131.547 9.31641C131.547 8.49609 131.258 8.08594 130.68 8.08594C130.273 8.08594 129.898 8.30078 129.555 8.73047C129.266 9.09766 129.016 9.62109 128.805 10.3008L127.176 18H123.719L126.262 6H129.719L129.461 7.24219C129.93 6.71875 130.434 6.35156 130.973 6.14062C131.371 5.98438 131.801 5.90625 132.262 5.90625C133.074 5.90625 133.715 6.11719 134.184 6.53906C134.684 7 134.934 7.69141 134.934 8.61328C134.934 9.16797 134.832 9.89062 134.629 10.7812C134.574 11.0391 134.484 11.4258 134.359 11.9414C134.133 12.8086 133.969 13.5 133.867 14.0156C133.805 14.3438 133.773 14.6094 133.773 14.8125C133.773 15.1328 133.844 15.3828 133.984 15.5625C134.133 15.7344 134.383 15.8203 134.734 15.8203C135.211 15.8203 135.613 15.625 135.941 15.2344C136.191 14.9375 136.461 14.4258 136.75 13.6992H137.758C137.164 15.457 136.414 16.6875 135.508 17.3906C134.867 17.8906 134.129 18.1406 133.293 18.1406Z" fill="white"/>
</svg>
