<svg width="19" height="19" viewBox="0 0 19 19" fill="none" xmlns="http://www.w3.org/2000/svg">
<path d="M8.54798 1.6174C8.84542 0.69212 10.1546 0.692121 10.452 1.6174L11.8588 5.99367C11.9918 6.40721 12.3765 6.68763 12.8108 6.68763H17.3859C18.3521 6.68763 18.7565 7.92179 17.9778 8.49364L14.2582 11.2252C13.9114 11.4798 13.7664 11.9277 13.8981 12.3372L15.3145 16.7434C15.6113 17.6666 14.5522 18.4295 13.7706 17.8555L10.0919 15.154C9.73969 14.8954 9.26032 14.8954 8.9081 15.154L5.22944 17.8555C4.44783 18.4295 3.38874 17.6666 3.68552 16.7434L5.10195 12.3372C5.2336 11.9277 5.08857 11.4798 4.74183 11.2252L1.02217 8.49364C0.243456 7.92179 0.647936 6.68763 1.61407 6.68763H6.18915C6.62353 6.68763 7.00823 6.40721 7.14117 5.99367L8.54798 1.6174Z" fill="#ECECEC"/>
</svg>
